; NON-PLATED HOLES START AT T1
; THROUGH (PLATED) HOLES START AT T100
M48
INCH
T1C0.086614
T100C0.035000
T101C0.040000
T102C0.042000
T103C0.038000
%
T1
X031438Y031579
X031438Y002579
X002438Y031579
X002438Y002579
T100
X010439Y015579
X015439Y026579
X023439Y017579
X021439Y012579
X011439Y015579
X021439Y003579
X027439Y014579
X023439Y020579
X017439Y026579
X027439Y020579
X021439Y007579
X011439Y011579
X023439Y023579
X027439Y017579
X017439Y030579
X010439Y011579
X015439Y030579
X023439Y014579
X027439Y023579
X021439Y008579
T101
X014939Y029579
X027439Y004579
X013439Y028579
X019439Y017579
X019439Y028579
X016939Y029579
X019439Y024579
X013439Y027579
X027439Y006579
X018288Y024129
X006438Y006579
X019439Y026579
X019439Y020579
X018288Y025129
X019439Y018579
X013439Y020579
X013439Y022579
X019439Y023579
X013439Y023579
X015939Y029579
X019439Y022579
X013439Y017579
X019439Y019579
X013439Y024579
X013439Y018579
X017939Y029579
X013439Y025579
X013439Y019579
X013439Y026579
X019439Y025579
X019439Y021579
X013439Y021579
X027439Y011579
X006438Y004579
X018939Y029579
X027439Y009579
X019439Y027579
X013939Y029579
T102
X023439Y006579
X023439Y010579
X023439Y005579
X023439Y009579
X023439Y004579
X023439Y011579
T103
X006438Y018579
X016439Y013579
X006438Y014579
X015439Y013579
X027439Y026579
X028439Y021579
X013439Y013579
X027439Y027579
X024439Y026579
X024439Y029579
X004438Y018579
X028439Y014579
X028439Y023579
X004438Y014579
X005438Y014579
X027439Y028579
X005438Y018579
X028439Y018579
X024439Y027579
X024439Y028579
X008438Y018579
X014439Y013579
X007438Y018579
X017439Y013579
X028439Y020579
X028439Y024579
X028439Y015579
X007438Y014579
X018439Y013579
X027439Y029579
X028439Y017579
T00
M30
