G04 MADE WITH FRITZING*
G04 WWW.FRITZING.ORG*
G04 DOUBLE SIDED*
G04 HOLES PLATED*
G04 CONTOUR ON CENTER OF CONTOUR VECTOR*
%ASAXBY*%
%FSLAX23Y23*%
%MOIN*%
%OFA0B0*%
%SFA1.0B1.0*%
%ADD10C,0.075000*%
%ADD11C,0.074000*%
%ADD12C,0.078000*%
%ADD13C,0.082000*%
%ADD14C,0.080000*%
%ADD15R,0.082000X0.082000*%
%ADD16R,0.079986X0.080000*%
%ADD17C,0.048000*%
%LNCOPPER1*%
G90*
G70*
G54D10*
X1744Y2658D03*
X1744Y3058D03*
X1544Y2658D03*
X1544Y3058D03*
G54D11*
X1894Y2958D03*
X1794Y2958D03*
X1694Y2958D03*
X1594Y2958D03*
X1494Y2958D03*
X1394Y2958D03*
X1944Y2858D03*
X1944Y2758D03*
X1944Y2658D03*
X1944Y2558D03*
X1944Y2458D03*
X1829Y2513D03*
X1829Y2413D03*
X1944Y2358D03*
X1944Y2258D03*
X1944Y2158D03*
X1944Y2058D03*
X1944Y1958D03*
X1944Y1858D03*
X1944Y1758D03*
X1344Y1758D03*
X1344Y1858D03*
X1344Y1958D03*
X1344Y2058D03*
X1344Y2158D03*
X1344Y2258D03*
X1344Y2358D03*
X1344Y2458D03*
X1344Y2558D03*
X1344Y2658D03*
X1344Y2758D03*
X1344Y2858D03*
G54D12*
X1844Y1358D03*
X1744Y1358D03*
X1644Y1358D03*
X1544Y1358D03*
X1444Y1358D03*
X1344Y1358D03*
G54D13*
X2344Y658D03*
X2344Y558D03*
X2344Y458D03*
G54D14*
X2744Y1158D03*
X2744Y958D03*
X2744Y658D03*
X2744Y458D03*
X644Y458D03*
X644Y658D03*
G54D10*
X2144Y1258D03*
X2144Y858D03*
X2144Y358D03*
X2144Y758D03*
X1144Y1558D03*
X1144Y1158D03*
X1044Y1558D03*
X1044Y1158D03*
G54D12*
X844Y1858D03*
X744Y1858D03*
X644Y1858D03*
X544Y1858D03*
X444Y1858D03*
X2844Y2458D03*
X2844Y2358D03*
X2844Y2158D03*
X2844Y2058D03*
X2844Y1858D03*
X2844Y1758D03*
X2844Y1558D03*
X2844Y1458D03*
G54D10*
X2744Y1458D03*
X2344Y1458D03*
X2744Y1758D03*
X2344Y1758D03*
X2744Y2058D03*
X2344Y2058D03*
X2744Y2358D03*
X2344Y2358D03*
G54D12*
X2444Y2958D03*
X2444Y2858D03*
X2444Y2758D03*
X2444Y2658D03*
X2744Y2958D03*
X2744Y2858D03*
X2744Y2758D03*
X2744Y2658D03*
X744Y1458D03*
X644Y1458D03*
X544Y1458D03*
X444Y1458D03*
G54D13*
X2344Y1158D03*
X2344Y1058D03*
X2344Y958D03*
G54D15*
X2344Y658D03*
G54D16*
X2744Y1158D03*
X2744Y658D03*
X644Y458D03*
G54D15*
X2344Y1158D03*
G54D17*
X2703Y2958D02*
X2485Y2958D01*
D02*
X2144Y2558D02*
X1986Y2558D01*
D02*
X2403Y2958D02*
X2244Y2958D01*
D02*
X2244Y2958D02*
X2144Y2558D01*
D02*
X1444Y1558D02*
X1444Y1399D01*
D02*
X1645Y1558D02*
X1444Y1558D01*
D02*
X1743Y1659D02*
X1645Y1558D01*
D02*
X1743Y1857D02*
X1743Y1659D01*
D02*
X1902Y1958D02*
X1843Y1958D01*
D02*
X1843Y1958D02*
X1743Y1857D01*
D02*
X2043Y1359D02*
X2145Y1458D01*
D02*
X2143Y2557D02*
X1986Y2558D01*
D02*
X1885Y1358D02*
X2043Y1359D01*
D02*
X2145Y1458D02*
X2143Y2557D01*
D02*
X1144Y1958D02*
X1243Y2059D01*
D02*
X1144Y1598D02*
X1144Y1958D01*
D02*
X1243Y2059D02*
X1302Y2058D01*
D02*
X1045Y2258D02*
X1044Y1598D01*
D02*
X1302Y2358D02*
X1144Y2359D01*
D02*
X1144Y2359D02*
X1045Y2258D01*
D02*
X2945Y2758D02*
X2785Y2758D01*
D02*
X2945Y3157D02*
X2945Y2758D01*
D02*
X1545Y3159D02*
X2945Y3157D01*
D02*
X1544Y3098D02*
X1545Y3159D01*
D02*
X2845Y2859D02*
X2785Y2858D01*
D02*
X2845Y3056D02*
X2845Y2859D01*
D02*
X1784Y3058D02*
X2845Y3056D01*
D02*
X1744Y2558D02*
X1791Y2533D01*
D02*
X1545Y2558D02*
X1791Y2432D01*
D02*
X1544Y2618D02*
X1545Y2558D01*
D02*
X1744Y2618D02*
X1744Y2558D01*
D02*
X1744Y1058D02*
X1843Y1157D01*
D02*
X544Y1058D02*
X1744Y1058D01*
D02*
X1843Y1157D02*
X1844Y1317D01*
D02*
X444Y1417D02*
X443Y1157D01*
D02*
X443Y1157D02*
X544Y1058D01*
D02*
X544Y1657D02*
X544Y1488D01*
D02*
X345Y1657D02*
X544Y1657D01*
D02*
X344Y559D02*
X345Y1657D01*
D02*
X443Y459D02*
X344Y559D01*
D02*
X613Y458D02*
X443Y459D01*
D02*
X544Y1657D02*
X544Y1828D01*
D02*
X1314Y1358D02*
X544Y1358D01*
D02*
X544Y1358D02*
X544Y1428D01*
D02*
X2044Y358D02*
X1943Y458D01*
D02*
X1943Y458D02*
X686Y458D01*
D02*
X2104Y358D02*
X2044Y358D01*
D02*
X2244Y358D02*
X2321Y435D01*
D02*
X2173Y358D02*
X2244Y358D01*
D02*
X1943Y758D02*
X2044Y859D01*
D02*
X2044Y859D02*
X2115Y858D01*
D02*
X1943Y458D02*
X1943Y758D01*
D02*
X2321Y935D02*
X2244Y859D01*
D02*
X2244Y859D02*
X2173Y858D01*
D02*
X2344Y2329D02*
X2344Y2087D01*
D02*
X2344Y1787D02*
X2344Y2029D01*
D02*
X2344Y1487D02*
X2344Y1729D01*
D02*
X2343Y2558D02*
X2344Y2387D01*
D02*
X2423Y2637D02*
X2343Y2558D01*
D02*
X2544Y1359D02*
X2344Y1359D01*
D02*
X2544Y958D02*
X2544Y1359D01*
D02*
X2344Y1359D02*
X2344Y1429D01*
D02*
X2376Y958D02*
X2544Y958D01*
G04 End of Copper1*
M02*