G04 MADE WITH FRITZING*
G04 WWW.FRITZING.ORG*
G04 DOUBLE SIDED*
G04 HOLES PLATED*
G04 CONTOUR ON CENTER OF CONTOUR VECTOR*
%ASAXBY*%
%FSLAX23Y23*%
%MOIN*%
%OFA0B0*%
%SFA1.0B1.0*%
%ADD10C,0.075000*%
%ADD11C,0.074000*%
%ADD12C,0.078000*%
%ADD13C,0.082000*%
%ADD14C,0.080000*%
%ADD15R,0.082000X0.082000*%
%ADD16R,0.079986X0.080000*%
%ADD17C,0.048000*%
%LNCOPPER0*%
G90*
G70*
G54D10*
X1744Y2658D03*
X1744Y3058D03*
X1544Y2658D03*
X1544Y3058D03*
G54D11*
X1894Y2958D03*
X1794Y2958D03*
X1694Y2958D03*
X1594Y2958D03*
X1494Y2958D03*
X1394Y2958D03*
X1944Y2858D03*
X1944Y2758D03*
X1944Y2658D03*
X1944Y2558D03*
X1944Y2458D03*
X1829Y2513D03*
X1829Y2413D03*
X1944Y2358D03*
X1944Y2258D03*
X1944Y2158D03*
X1944Y2058D03*
X1944Y1958D03*
X1944Y1858D03*
X1944Y1758D03*
X1344Y1758D03*
X1344Y1858D03*
X1344Y1958D03*
X1344Y2058D03*
X1344Y2158D03*
X1344Y2258D03*
X1344Y2358D03*
X1344Y2458D03*
X1344Y2558D03*
X1344Y2658D03*
X1344Y2758D03*
X1344Y2858D03*
G54D12*
X1844Y1358D03*
X1744Y1358D03*
X1644Y1358D03*
X1544Y1358D03*
X1444Y1358D03*
X1344Y1358D03*
G54D13*
X2344Y658D03*
X2344Y558D03*
X2344Y458D03*
G54D14*
X2744Y1158D03*
X2744Y958D03*
X2744Y658D03*
X2744Y458D03*
X644Y458D03*
X644Y658D03*
G54D10*
X2144Y1258D03*
X2144Y858D03*
X2144Y358D03*
X2144Y758D03*
X1144Y1558D03*
X1144Y1158D03*
X1044Y1558D03*
X1044Y1158D03*
G54D12*
X844Y1858D03*
X744Y1858D03*
X644Y1858D03*
X544Y1858D03*
X444Y1858D03*
X2844Y2458D03*
X2844Y2358D03*
X2844Y2158D03*
X2844Y2058D03*
X2844Y1858D03*
X2844Y1758D03*
X2844Y1558D03*
X2844Y1458D03*
G54D10*
X2744Y1458D03*
X2344Y1458D03*
X2744Y1758D03*
X2344Y1758D03*
X2744Y2058D03*
X2344Y2058D03*
X2744Y2358D03*
X2344Y2358D03*
G54D12*
X2444Y2958D03*
X2444Y2858D03*
X2444Y2758D03*
X2444Y2658D03*
X2744Y2958D03*
X2744Y2858D03*
X2744Y2758D03*
X2744Y2658D03*
X744Y1458D03*
X644Y1458D03*
X544Y1458D03*
X444Y1458D03*
G54D13*
X2344Y1158D03*
X2344Y1058D03*
X2344Y958D03*
G54D15*
X2344Y658D03*
G54D16*
X2744Y1158D03*
X2744Y658D03*
X644Y458D03*
G54D15*
X2344Y1158D03*
G54D17*
X2743Y257D02*
X2744Y416D01*
D02*
X1045Y657D02*
X1744Y257D01*
D02*
X1744Y257D02*
X2743Y257D01*
D02*
X686Y658D02*
X1045Y657D01*
D02*
X2843Y959D02*
X2786Y958D01*
D02*
X2843Y458D02*
X2843Y959D01*
D02*
X2786Y458D02*
X2843Y458D01*
D02*
X2644Y557D02*
X2387Y558D01*
D02*
X2714Y628D02*
X2644Y557D01*
D02*
X2644Y1058D02*
X2387Y1058D01*
D02*
X2714Y1128D02*
X2644Y1058D01*
D02*
X2245Y1258D02*
X2314Y1189D01*
D02*
X2184Y1258D02*
X2245Y1258D01*
D02*
X2245Y758D02*
X2184Y758D01*
D02*
X2313Y689D02*
X2245Y758D01*
D02*
X1045Y858D02*
X1044Y1118D01*
D02*
X1143Y758D02*
X1045Y858D01*
D02*
X2104Y758D02*
X1143Y758D01*
D02*
X1843Y858D02*
X1944Y959D01*
D02*
X1243Y858D02*
X1843Y858D01*
D02*
X1944Y959D02*
X1944Y1157D01*
D02*
X1944Y1157D02*
X2044Y1257D01*
D02*
X2044Y1257D02*
X2104Y1258D01*
D02*
X1143Y959D02*
X1243Y858D01*
D02*
X1144Y1118D02*
X1143Y959D01*
D02*
X1843Y1757D02*
X1902Y1758D01*
D02*
X1744Y1658D02*
X1843Y1757D01*
D02*
X1744Y1399D02*
X1744Y1658D01*
D02*
X1644Y1658D02*
X1644Y1399D01*
D02*
X1843Y1858D02*
X1644Y1658D01*
D02*
X1902Y1858D02*
X1843Y1858D01*
D02*
X1545Y1757D02*
X1544Y1399D01*
D02*
X1843Y2058D02*
X1545Y1757D01*
D02*
X1902Y2058D02*
X1843Y2058D01*
D02*
X644Y1757D02*
X644Y1817D01*
D02*
X1045Y1757D02*
X644Y1757D01*
D02*
X1144Y1858D02*
X1045Y1757D01*
D02*
X1302Y1858D02*
X1144Y1858D01*
D02*
X444Y1817D02*
X444Y1499D01*
D02*
X644Y1417D02*
X644Y700D01*
D02*
X2703Y2858D02*
X2485Y2858D01*
D02*
X2703Y2758D02*
X2485Y2758D01*
D02*
X2803Y2358D02*
X2784Y2358D01*
D02*
X2803Y2058D02*
X2784Y2058D01*
D02*
X2784Y1758D02*
X2803Y1758D01*
D02*
X2803Y1458D02*
X2784Y1458D01*
D02*
X2644Y2458D02*
X2716Y2386D01*
D02*
X1986Y2458D02*
X2644Y2458D01*
D02*
X2644Y2157D02*
X2716Y2086D01*
D02*
X2244Y2358D02*
X2244Y2157D01*
D02*
X2244Y2157D02*
X2644Y2157D01*
D02*
X1986Y2358D02*
X2244Y2358D01*
D02*
X2644Y1858D02*
X2716Y1786D01*
D02*
X2144Y2259D02*
X2144Y1858D01*
D02*
X2144Y1858D02*
X2644Y1858D01*
D02*
X1986Y2258D02*
X2144Y2259D01*
D02*
X2044Y2157D02*
X2044Y1558D01*
D02*
X2644Y1558D02*
X2716Y1486D01*
D02*
X2044Y1558D02*
X2644Y1558D01*
D02*
X1986Y2158D02*
X2044Y2157D01*
D02*
X2714Y2658D02*
X2474Y2658D01*
D02*
X2844Y2558D02*
X2765Y2637D01*
D02*
X2844Y2488D02*
X2844Y2558D01*
D02*
X3044Y2459D02*
X2874Y2458D01*
D02*
X3044Y2158D02*
X3044Y2459D01*
D02*
X2885Y2158D02*
X3044Y2158D01*
D02*
X3044Y1859D02*
X2874Y1858D01*
D02*
X3044Y2158D02*
X3044Y1859D01*
D02*
X3044Y1859D02*
X3044Y1558D01*
D02*
X3044Y1558D02*
X2874Y1558D01*
D02*
X2143Y2658D02*
X2414Y2658D01*
D02*
X1972Y2744D02*
X2143Y2658D01*
G04 End of Copper0*
M02*